<svg id="Capa_1" enable-background="new 0 0 512 512" height="512" viewBox="0 0 512 512" width="512" xmlns="http://www.w3.org/2000/svg">
    <g>
        <g>
            <path d="m401.825 493.419v-36.835c0-2.761-2.238-5-5-5h-116.031c-2.761 0-5 2.239-5 5v36.835l63.016 9z" fill="#f7594e" />
            <path d="m110.174 493.419v-50.091c0-2.761-2.239-5-5-5h-100.174c-2.761 0-5 2.239-5 5v50.091l55.087 9z" fill="#f7594e" />
            <path d="m90.148 366.848 165.852 9 165.852-9c-.332-1.608-.93-3.209-1.834-4.75l-58.222-99.24h22.563c3.92 0 6.362-4.253 4.385-7.638l-67.449-115.516h17.53c3.936 0 6.376-4.285 4.367-7.67l-73.871-124.45c-6.002-10.112-20.64-10.112-26.643 0l-73.872 124.451c-2.009 3.385.43 7.67 4.367 7.67h17.53l-67.448 115.515c-1.977 3.385.465 7.638 4.385 7.638h22.563l-58.221 99.24c-.904 1.541-1.502 3.142-1.834 4.75z" fill="#36ce94" />
            <path d="m275.794 493.419v-107.991l-19.794-9-19.795 9v107.991l19.795 9z" fill="#e4936b" />
            <path d="m5 512h42.345l7.742-9 7.742 9h42.345c2.761 0 5-2.239 5-5v-13.581h-110.174v13.581c0 2.761 2.239 5 5 5z" fill="#ea4642" />
            <path d="m280.794 512h50.274l7.742-9 7.742 9h50.273c2.761 0 5-2.239 5-5v-13.581h-126.031v13.581c0 2.761 2.239 5 5 5z" fill="#ea4642" />
            <path d="m85.096 409.009c-17.296-2.883-30.009 29.319-30.009 29.319s-12.713-32.202-30.009-29.319c-15.167 2.528-10.032 29.319-10.032 29.319h32.299v55.091l7.742 9 7.742-9v-55.091h32.299s5.135-26.791-10.032-29.319z" fill="#ffe08c" />
            <path d="m368.819 422.266c-17.296-2.883-30.009 29.319-30.009 29.319s-12.713-32.202-30.009-29.319c-15.167 2.528-10.032 29.319-10.032 29.319h32.299v41.835l7.742 9 7.742-9v-41.835h32.298s5.135-26.791-10.031-29.319z" fill="#ffe08c" />
            <path d="m331.068 493.419h15.484v18.581h-15.484z" fill="#f9d375" />
            <ellipse cx="256" cy="107.182" fill="#ffe08c" rx="15.996" ry="15.996" transform="matrix(.707 -.707 .707 .707 -.808 212.412)" />
            <ellipse cx="334.681" cy="336.145" fill="#f7594e" rx="15.996" ry="15.996" transform="matrix(.973 -.23 .23 .973 -68.277 85.886)" />
            <path d="m256 104.597c-5.366 0-10.103-2.651-13.005-6.705-1.876 2.621-2.991 5.822-2.991 9.29 0 8.834 7.161 15.995 15.996 15.995 8.834 0 15.996-7.161 15.996-15.995 0-3.468-1.116-6.67-2.991-9.29-2.903 4.054-7.64 6.705-13.005 6.705z" fill="#f9d375" />
            <path d="m334.681 333.559c-5.366 0-10.103-2.651-13.005-6.705-1.876 2.621-2.991 5.822-2.991 9.29 0 8.834 7.162 15.996 15.996 15.996s15.995-7.161 15.995-15.996c0-3.468-1.116-6.67-2.991-9.29-2.901 4.054-7.638 6.705-13.004 6.705z" fill="#ea4642" />
            <path d="m90.148 366.848c-1.896 9.169 5.009 18.581 15.195 18.581h301.313c10.187 0 17.091-9.412 15.195-18.581z" fill="#36bf84" />
            <path d="m241.205 512h29.589c2.761 0 5-2.239 5-5v-13.581h-39.589v13.581c0 2.761 2.239 5 5 5z" fill="#db835d" />
            <g>
                <path d="m168.637 330.313c0 9.29 7.639 15.705 13.004 15.705s13.004-6.193 13.004-15.705c-2.902-4.054-7.639-6.705-13.004-6.705s-10.102 2.651-13.004 6.705z" fill="#f7594e" />
                <path d="m181.641 337.018c-5.366 0-10.103-2.651-13.004-6.705-1.876 2.62-2.991 5.822-2.991 9.29 0 8.834 7.161 15.996 15.996 15.996 8.834 0 15.996-7.161 15.996-15.996 0-3.468-1.116-6.67-2.991-9.29-2.903 4.054-7.64 6.705-13.006 6.705z" fill="#ea4642" />
            </g>
            <g>
                <path d="m321.677 326.854c0 9.29 7.639 15.705 13.004 15.705 5.366 0 13.004-6.193 13.004-15.705-2.902-4.054-7.639-6.705-13.004-6.705-5.366 0-10.103 2.651-13.004 6.705z" fill="#f7594e" />
                <path d="m334.681 333.56c-5.366 0-10.103-2.651-13.004-6.705-1.876 2.62-2.991 5.822-2.991 9.29 0 8.834 7.161 15.996 15.996 15.996 8.834 0 15.996-7.161 15.996-15.996 0-3.469-1.116-6.67-2.991-9.29-2.903 4.053-7.64 6.705-13.006 6.705z" fill="#ea4642" />
            </g>
            <g>
                <path d="m250.557 276.273c0 9.29 7.639 15.705 13.004 15.705 5.366 0 13.004-6.193 13.004-15.705-2.902-4.054-7.639-6.705-13.004-6.705-5.366 0-10.103 2.651-13.004 6.705z" fill="#ffe08c" />
                <path d="m263.561 282.979c-5.366 0-10.103-2.651-13.004-6.705-1.876 2.621-2.991 5.822-2.991 9.29 0 8.834 7.162 15.996 15.996 15.996s15.996-7.161 15.996-15.996c0-3.468-1.116-6.67-2.991-9.29-2.903 4.053-7.64 6.705-13.006 6.705z" fill="#f9d375" />
            </g>
            <g>
                <path d="m195.873 207.367c0 9.29 7.639 15.705 13.004 15.705 5.366 0 13.004-6.193 13.004-15.705-2.902-4.054-7.639-6.705-13.005-6.705-5.365 0-10.102 2.651-13.003 6.705z" fill="#ffe08c" />
                <path d="m208.877 214.073c-5.366 0-10.103-2.651-13.004-6.705-1.876 2.621-2.991 5.822-2.991 9.29 0 8.834 7.161 15.996 15.996 15.996 8.834 0 15.996-7.161 15.996-15.996 0-3.468-1.116-6.67-2.991-9.29-2.903 4.053-7.64 6.705-13.006 6.705z" fill="#f9d375" />
            </g>
            <g>
                <path d="m289.734 191.372c0 9.29 7.639 15.705 13.004 15.705 5.366 0 13.004-6.193 13.004-15.705-2.902-4.054-7.639-6.705-13.004-6.705-5.366 0-10.103 2.651-13.004 6.705z" fill="#f7594e" />
                <path d="m302.738 198.077c-5.366 0-10.103-2.651-13.004-6.705-1.876 2.62-2.991 5.822-2.991 9.29 0 8.834 7.161 15.996 15.996 15.996 8.834 0 15.996-7.161 15.996-15.996 0-3.469-1.116-6.67-2.991-9.29-2.903 4.054-7.64 6.705-13.006 6.705z" fill="#ea4642" />
            </g>
            <path d="m47.345 493.419h15.484v18.581h-15.484z" fill="#f9d375" />
            <path d="m512 493.419v-50.091c0-2.761-2.239-5-5-5h-100.174c-2.761 0-5 2.239-5 5v50.091l55.087 9z" fill="#ffe08c" />
            <path d="m406.826 512h42.345l7.742-9 7.742 9h42.345c2.761 0 5-2.239 5-5v-13.581h-110.174v13.581c0 2.761 2.238 5 5 5z" fill="#f9d375" />
            <path d="m486.922 409.009c-17.296-2.883-30.009 29.319-30.009 29.319s-12.713-32.202-30.009-29.319c-15.167 2.528-10.032 29.319-10.032 29.319h32.299v55.091l7.742 9 7.742-9v-55.091h32.299c-.001 0 5.134-26.791-10.032-29.319z" fill="#f7594e" />
            <path d="m449.171 493.419h15.484v18.581h-15.484z" fill="#ea4642" />
            <path d="m236.205 493.419v-36.835c0-2.761-2.238-5-5-5h-116.031c-2.761 0-5 2.239-5 5v36.835l63.016 9z" fill="#ffe08c" />
            <path d="m115.174 512h50.274l7.742-9 7.742 9h50.273c2.761 0 5-2.239 5-5v-13.581h-126.031v13.581c0 2.761 2.239 5 5 5z" fill="#f9d375" />
            <path d="m203.199 422.266c-17.296-2.883-30.009 29.319-30.009 29.319s-12.713-32.202-30.009-29.319c-15.167 2.528-10.032 29.319-10.032 29.319h32.299v41.835l7.742 9 7.742-9v-41.835h32.298s5.135-26.791-10.031-29.319z" fill="#f7594e" />
            <path d="m165.448 493.419h15.484v18.581h-15.484z" fill="#ea4642" />
        </g>
    </g>
</svg>